<?xml version="1.0" standalone="no"?>
<!DOCTYPE svg PUBLIC "-//W3C//DTD SVG 20010904//EN"
 "http://www.w3.org/TR/2001/REC-SVG-20010904/DTD/svg10.dtd">
<svg version="1.0" xmlns="http://www.w3.org/2000/svg"
 width="519.000000pt" height="519.000000pt" viewBox="0 0 519.000000 519.000000"
 preserveAspectRatio="xMidYMid meet">
<metadata>
Created by potrace 1.14, written by Peter Selinger 2001-2017
</metadata>
<g transform="translate(0.000000,519.000000) scale(0.100000,-0.100000)"
fill="#000000" stroke="none">
<path d="M3215 4454 c-49 -8 -103 -19 -118 -25 -38 -16 -140 -155 -167 -226
-12 -31 -27 -90 -35 -131 -8 -41 -16 -76 -17 -77 -2 -2 -64 1 -138 6 -304 18
-400 8 -482 -50 -86 -61 -111 -203 -62 -349 68 -204 167 -321 417 -492 44 -30
86 -64 95 -75 10 -12 29 -29 45 -39 21 -14 27 -26 27 -52 0 -19 4 -34 9 -34 4
0 13 -37 19 -82 6 -45 15 -84 21 -86 6 -2 11 -17 11 -33 0 -31 47 -89 83 -102
9 -4 17 -11 17 -17 0 -5 7 -10 15 -10 8 0 15 -4 15 -10 0 -5 10 -10 22 -10 12
0 34 -12 49 -26 34 -33 83 -44 193 -43 135 1 249 40 331 111 145 129 176 174
191 282 27 197 37 252 45 261 5 5 9 0 9 -13 0 -15 6 -22 20 -22 24 0 26 32 5
70 -20 34 -18 50 3 50 10 0 25 12 32 26 12 22 16 24 26 10 6 -9 21 -16 32 -16
37 0 36 -38 -3 -122 -19 -42 -35 -84 -35 -92 0 -9 -27 -35 -60 -59 l-61 -42 6
-84 c6 -83 7 -85 47 -120 l40 -36 -39 0 c-32 0 -38 -3 -36 -20 2 -25 -54 -100
-142 -187 -63 -64 -132 -122 -273 -230 -101 -78 -102 -78 202 -78 298 0 275
-5 402 89 109 80 113 102 43 209 -43 67 -45 75 -26 115 11 25 16 27 50 21 42
-7 43 -5 21 38 -11 22 -14 45 -10 75 3 24 0 64 -6 89 -11 38 -10 47 2 54 13 8
13 13 2 30 -7 11 -10 25 -7 30 3 5 57 43 119 84 120 80 161 121 244 249 124
191 144 385 57 563 -44 90 -112 155 -210 200 -98 45 -175 61 -330 69 -71 3
-137 8 -145 10 -8 3 -48 54 -88 114 -40 61 -95 135 -123 165 -79 86 -149 100
-354 70z m29 -854 c14 -22 33 -40 41 -40 8 0 15 -8 15 -19 0 -30 20 -38 105
-45 44 -3 95 -8 113 -12 48 -9 42 16 -15 66 -47 41 -47 42 -18 36 17 -2 43 -8
59 -12 28 -7 28 -6 24 28 l-4 34 29 -14 c16 -8 32 -25 37 -37 6 -15 19 -25 37
-27 44 -5 73 -66 73 -154 0 -59 -5 -81 -30 -130 -16 -32 -30 -70 -30 -84 -1
-66 -61 -167 -129 -219 -42 -31 -45 -32 -58 -15 -7 10 -13 28 -13 41 0 23 -3
25 -158 115 -116 68 -113 67 -206 63 -74 -4 -92 -8 -119 -29 -76 -59 -127
-125 -127 -163 0 -32 -18 -29 -31 5 -13 30 -15 377 -4 474 7 55 10 61 46 83
21 14 45 22 54 19 13 -5 10 -10 -14 -25 -33 -20 -45 -39 -56 -86 -6 -29 -4
-33 14 -33 11 0 26 8 33 18 10 14 77 42 101 42 14 0 37 -67 32 -92 -10 -43 19
-36 39 10 9 20 21 45 27 55 52 94 67 127 74 155 9 43 27 40 59 -8z m-14 -610
c22 -11 59 -23 83 -26 52 -7 82 -31 91 -70 l7 -30 -93 3 c-51 2 -117 11 -145
20 -52 17 -53 17 -76 -5 -21 -20 -30 -22 -81 -16 -63 8 -73 18 -59 60 8 23 22
32 89 55 97 33 133 35 184 9z"/>
<path d="M3164 3266 c-15 -12 -17 -18 -8 -33 15 -24 114 -32 114 -9 0 33 -77
63 -106 42z"/>
<path d="M3027 3253 c-4 -3 -7 -17 -7 -30 0 -22 4 -23 60 -23 68 0 78 14 29
43 -31 17 -70 22 -82 10z"/>
<path d="M750 3503 c-91 -16 -198 -66 -271 -128 -42 -35 -106 -118 -133 -172
-56 -113 -56 -110 -56 -838 0 -644 1 -673 20 -744 22 -79 83 -182 141 -240 53
-52 146 -109 218 -133 60 -20 93 -22 361 -27 l295 -6 110 -74 c61 -41 151
-102 200 -135 50 -34 97 -65 107 -71 39 -24 505 -339 519 -351 40 -35 40 -33
-37 334 -53 252 -55 264 -38 283 16 18 35 19 393 19 293 0 392 4 446 15 204
43 366 202 420 412 18 71 18 294 -1 300 -6 2 -30 -12 -55 -32 -24 -19 -48 -35
-52 -35 -4 0 -17 -9 -29 -20 -12 -11 -28 -20 -35 -20 -7 0 -13 -4 -13 -10 0
-5 -7 -10 -15 -10 -8 0 -15 -4 -15 -10 0 -5 -7 -10 -15 -10 -8 0 -15 -4 -15
-10 0 -5 -6 -10 -14 -10 -8 0 -16 -4 -18 -8 -1 -5 -59 -46 -128 -92 -69 -46
-126 -87 -128 -92 -2 -4 -8 -8 -14 -8 -5 0 -23 -9 -40 -21 -16 -12 -31 -19
-34 -17 -2 3 7 58 21 124 14 65 35 162 46 214 52 245 52 244 41 273 l-10 27
90 0 90 0 -6 38 c-8 44 -45 188 -57 220 -13 32 -51 29 -72 -7 -15 -26 -79 -87
-189 -181 -21 -18 -38 -41 -38 -52 0 -19 -8 -19 -332 -16 -368 4 -353 2 -481
76 -54 31 -148 116 -174 158 -41 65 -73 125 -84 160 -9 28 -14 161 -16 487
l-4 447 -437 -1 c-240 -1 -448 -4 -462 -6z"/>
<path d="M3320 2380 c-19 -10 -43 -21 -52 -24 -13 -4 -18 -16 -18 -41 0 -43
10 -44 72 -4 93 60 92 120 -2 69z"/>
</g>
</svg>
